<svg id="visual" viewBox="0 0 900 900" width="900" height="900" xmlns="http://www.w3.org/2000/svg" xmlns:xlink="http://www.w3.org/1999/xlink" version="1.1"><rect x="0" y="0" width="900" height="900" fill="#dedede"></rect><path d="M0 769L18.8 776.5C37.7 784 75.3 799 112.8 802.8C150.3 806.7 187.7 799.3 225.2 799.3C262.7 799.3 300.3 806.7 337.8 808.3C375.3 810 412.7 806 450.2 809.3C487.7 812.7 525.3 823.3 562.8 831.7C600.3 840 637.7 846 675.2 844.7C712.7 843.3 750.3 834.7 787.8 826.5C825.3 818.3 862.7 810.7 881.3 806.8L900 803L900 901L881.3 901C862.7 901 825.3 901 787.8 901C750.3 901 712.7 901 675.2 901C637.7 901 600.3 901 562.8 901C525.3 901 487.7 901 450.2 901C412.7 901 375.3 901 337.8 901C300.3 901 262.7 901 225.2 901C187.7 901 150.3 901 112.8 901C75.3 901 37.7 901 18.8 901L0 901Z" fill="#715DF2" stroke-linecap="round" stroke-linejoin="miter"></path></svg>