<svg id="visual" viewBox="0 0 1920 1200" width="1920" height="1200" xmlns="http://www.w3.org/2000/svg" xmlns:xlink="http://www.w3.org/1999/xlink" version="1.1"><rect x="0" y="0" width="1920" height="1200" fill="#d6dcde"></rect><path d="M0 948L45.7 958.3C91.3 968.7 182.7 989.3 274.2 1010.7C365.7 1032 457.3 1054 548.8 1045.5C640.3 1037 731.7 998 823 1001.8C914.3 1005.7 1005.7 1052.3 1097 1072C1188.3 1091.7 1279.7 1084.3 1371.2 1083.3C1462.7 1082.3 1554.3 1087.7 1645.8 1077C1737.3 1066.3 1828.7 1039.7 1874.3 1026.3L1920 1013L1920 1201L1874.3 1201C1828.7 1201 1737.3 1201 1645.8 1201C1554.3 1201 1462.7 1201 1371.2 1201C1279.7 1201 1188.3 1201 1097 1201C1005.7 1201 914.3 1201 823 1201C731.7 1201 640.3 1201 548.8 1201C457.3 1201 365.7 1201 274.2 1201C182.7 1201 91.3 1201 45.7 1201L0 1201Z" fill="#9300ff" stroke-linecap="round" stroke-linejoin="miter"></path></svg>